<svg xmlns="http://www.w3.org/2000/svg" xmlns:xlink="http://www.w3.org/1999/xlink" version="1.1" width="1000" height="1000" viewBox="0 0 1000 1000" xml:space="preserve">
<desc>Created with Fabric.js 3.5.0</desc>
<defs>
</defs>
<rect x="0" y="0" width="100%" height="100%" fill="#ffffff"/>
<g transform="matrix(2.047 0 0 2.047 2536.5054 562.3965)" id="789139">
<g style="" vector-effect="non-scaling-stroke">
		<g transform="matrix(11.4367 0 0 11.4367 -539.1255 -83.2066)">
<path style="stroke: none; stroke-width: 1; stroke-dasharray: none; stroke-linecap: butt; stroke-dashoffset: 0; stroke-linejoin: miter; stroke-miterlimit: 4; is-custom-font: none; font-file-url: none; fill: rgb(255,69,0); fill-rule: nonzero; opacity: 1;" transform=" translate(-61.48, -16.02)" d="M 61.47 23.86 h 0.06 L 68.44 5.38 h 2.31 L 62.61 26.66 H 60.33 L 52.21 5.38 h 2.35 Z" stroke-linecap="round"/>
</g>
		<g transform="matrix(11.4367 0 0 11.4367 -358.4831 -41.9475)">
<path style="stroke: none; stroke-width: 1; stroke-dasharray: none; stroke-linecap: butt; stroke-dashoffset: 0; stroke-linejoin: miter; stroke-miterlimit: 4; is-custom-font: none; font-file-url: none; fill: rgb(255,69,0); fill-rule: nonzero; opacity: 1;" transform=" translate(-77.275, -19.6276)" d="M 81.15 17.58 c 0 -2.43 -1.32 -3.63 -3.76 -3.63 a 6 6 0 0 0 -4.17 1.65 l -1.14 -1.35 a 7.87 7.87 0 0 1 5.52 -2 c 3 0 5.47 1.69 5.47 5.11 V 23.5 a 19.459 19.459 0 0 0 0.24 3.16 H 81.48 a 14.229 14.229 0 0 1 -0.21 -2.29 h -0.06 A 5.64 5.64 0 0 1 76.1 27 c -2.13 0 -4.86 -1.15 -4.86 -4.27 C 71.24 18.42 76 18 81.15 18 Z m -0.6 2.05 c -3.34 0 -7.21 0.36 -7.21 3 c 0 2 1.71 2.67 3.3 2.67 a 4.39 4.39 0 0 0 4.51 -4.65 V 19.63 Z" stroke-linecap="round"/>
</g>
		<g transform="matrix(11.4367 0 0 11.4367 -219.3558 -91.441)">
<path style="stroke: none; stroke-width: 1; stroke-dasharray: none; stroke-linecap: butt; stroke-dashoffset: 0; stroke-linejoin: miter; stroke-miterlimit: 4; is-custom-font: none; font-file-url: none; fill: rgb(255,69,0); fill-rule: nonzero; opacity: 1;" transform=" translate(-89.44, -15.3)" d="M 90.44 26.66 h -2 V 3.94 h 2 Z" stroke-linecap="round"/>
</g>
		<g transform="matrix(11.4367 0 0 11.4367 -76.9689 -40.0317)">
<path style="stroke: none; stroke-width: 1; stroke-dasharray: none; stroke-linecap: butt; stroke-dashoffset: 0; stroke-linejoin: miter; stroke-miterlimit: 4; is-custom-font: none; font-file-url: none; fill: rgb(255,69,0); fill-rule: nonzero; opacity: 1;" transform=" translate(-101.89, -19.7951)" d="M 106.12 26.66 c -0.06 -0.76 -0.12 -1.81 -0.12 -2.41 h -0.06 A 5.49 5.49 0 0 1 101.13 27 c -3.57 0 -5.34 -2.32 -5.34 -5.8 V 12.59 h 2 v 7.79 c 0 2.94 0.87 4.92 3.81 4.92 c 2.17 0 4.27 -1.74 4.27 -5.49 V 12.59 h 2 v 11 a 28.734 28.734 0 0 0 0.12 3.1 Z" stroke-linecap="round"/>
</g>
		<g transform="matrix(11.4367 0 0 11.4367 121.9957 -41.7414)">
<path style="stroke: none; stroke-width: 1; stroke-dasharray: none; stroke-linecap: butt; stroke-dashoffset: 0; stroke-linejoin: miter; stroke-miterlimit: 4; is-custom-font: none; font-file-url: none; fill: rgb(255,69,0); fill-rule: nonzero; opacity: 1;" transform=" translate(-119.287, -19.6456)" d="M 126.13 20.17 H 114.47 a 5.14 5.14 0 0 0 5.14 5.1 a 5.32 5.32 0 0 0 4.51 -2.43 l 1.53 1.2 a 7.34 7.34 0 0 1 -6 3 a 7.14 7.14 0 0 1 -7.27 -7.39 a 7.11 7.11 0 0 1 7.09 -7.4 c 4.42 0 6.73 3.13 6.73 7 C 126.16 19.47 126.16 19.81 126.13 20.17 Z m -2 -1.63 a 4.43 4.43 0 0 0 -4.7 -4.54 a 5 5 0 0 0 -4.93 4.59 Z" stroke-linecap="round"/>
</g>
		<g transform="matrix(11.4367 0 0 11.4367 335.7694 -89.4739)">
<path style="stroke: none; stroke-width: 1; stroke-dasharray: none; stroke-linecap: butt; stroke-dashoffset: 0; stroke-linejoin: miter; stroke-miterlimit: 4; is-custom-font: none; font-file-url: none; fill: rgb(60,60,60); fill-rule: nonzero; opacity: 1;" transform=" translate(-137.979, -15.472)" d="M 132.65 24.28 v 2.38 h -2 V 3.94 h 2 V 15 h 0.06 a 6.42 6.42 0 0 1 5.32 -2.8 a 7.07 7.07 0 0 1 7.27 7.4 A 7.07 7.07 0 0 1 138 27 a 6.52 6.52 0 0 1 -5.32 -2.74 Z M 137.82 14 a 5.4 5.4 0 0 0 -5.41 5.68 a 5.37 5.37 0 0 0 5.41 5.64 c 3.4 0 5.32 -2.52 5.32 -5.64 S 141.22 14 137.82 14 Z" stroke-linecap="round"/>
</g>
		<g transform="matrix(11.4367 0 0 11.4367 543.815 -42.7391)">
<path style="stroke: none; stroke-width: 1; stroke-dasharray: none; stroke-linecap: butt; stroke-dashoffset: 0; stroke-linejoin: miter; stroke-miterlimit: 4; is-custom-font: none; font-file-url: none; fill: rgb(60,60,60); fill-rule: nonzero; opacity: 1;" transform=" translate(-156.17, -19.5584)" d="M 156.15 27 a 7.21 7.21 0 0 1 -7.48 -7.39 a 7.5 7.5 0 0 1 15 0 A 7.21 7.21 0 0 1 156.15 27 Z m 0 -13.07 c -3.24 0 -5.32 2.52 -5.32 5.68 s 2.08 5.64 5.32 5.64 a 5.305 5.305 0 0 0 5.35 -5.64 c 0 -3.15 -2.07 -5.61 -5.35 -5.61 Z" stroke-linecap="round"/>
</g>
		<g transform="matrix(11.4367 0 0 11.4367 748.1312 -40.0323)">
<path style="stroke: none; stroke-width: 1; stroke-dasharray: none; stroke-linecap: butt; stroke-dashoffset: 0; stroke-linejoin: miter; stroke-miterlimit: 4; is-custom-font: none; font-file-url: none; fill: rgb(60,60,60); fill-rule: nonzero; opacity: 1;" transform=" translate(-174.035, -19.7951)" d="M 178.27 26.66 c -0.06 -0.76 -0.12 -1.81 -0.12 -2.41 h -0.06 A 5.51 5.51 0 0 1 173.28 27 c -3.58 0 -5.35 -2.32 -5.35 -5.8 V 12.59 h 2 v 7.79 c 0 2.94 0.87 4.92 3.82 4.92 c 2.16 0 4.27 -1.74 4.27 -5.49 V 12.59 h 2 v 11 a 28.736 28.736 0 0 0 0.12 3.1 Z" stroke-linecap="round"/>
</g>
		<g transform="matrix(11.4367 0 0 11.4367 948.502 -44.0366)">
<path style="stroke: none; stroke-width: 1; stroke-dasharray: none; stroke-linecap: butt; stroke-dashoffset: 0; stroke-linejoin: miter; stroke-miterlimit: 4; is-custom-font: none; font-file-url: none; fill: rgb(60,60,60); fill-rule: nonzero; opacity: 1;" transform=" translate(-191.555, -19.4449)" d="M 187.34 12.59 c 0.06 0.76 0.12 1.81 0.12 2.41 h 0.06 a 5.5 5.5 0 0 1 4.81 -2.77 c 3.57 0 5.35 2.32 5.35 5.8 v 8.63 h -2.05 V 18.87 c 0 -2.94 -0.87 -4.92 -3.81 -4.92 c -2.16 0 -4.27 1.74 -4.27 5.49 v 7.22 h -2 v -11 a 28.736 28.736 0 0 0 -0.12 -3.1 Z" stroke-linecap="round"/>
</g>
		<g transform="matrix(11.4367 0 0 11.4367 1151.6299 -89.4869)">
<path style="stroke: none; stroke-width: 1; stroke-dasharray: none; stroke-linecap: butt; stroke-dashoffset: 0; stroke-linejoin: miter; stroke-miterlimit: 4; is-custom-font: none; font-file-url: none; fill: rgb(60,60,60); fill-rule: nonzero; opacity: 1;" transform=" translate(-209.3161, -15.4709)" d="M 209.22 27 A 7.07 7.07 0 0 1 202 19.63 a 7.07 7.07 0 0 1 7.27 -7.4 a 6.39 6.39 0 0 1 5.31 2.8 h 0.06 V 3.94 h 2 V 26.66 h -2 V 24.28 h -0.06 A 6.48 6.48 0 0 1 209.22 27 Z m 0.21 -1.75 a 5.36 5.36 0 0 0 5.4 -5.64 a 5.39 5.39 0 0 0 -5.4 -5.68 c -3.4 0 -5.32 2.55 -5.32 5.68 s 1.89 5.66 5.32 5.66 Z" stroke-linecap="round"/>
</g>
		<g transform="matrix(11.4367 0 0 11.4367 -706.4444 154.505)">
<path style="stroke: none; stroke-width: 1; stroke-dasharray: none; stroke-linecap: butt; stroke-dashoffset: 0; stroke-linejoin: miter; stroke-miterlimit: 4; is-custom-font: none; font-file-url: none; fill: rgb(60,60,60); fill-rule: nonzero; opacity: 1;" transform=" translate(-46.85, -36.805)" d="M 44.61 41.61 h -1 V 32 h 2.82 c 1.9 0 3.28 0.69 3.28 2.56 A 2.48 2.48 0 0 1 47.28 37 l 2.81 4.57 h -1.2 l -2.66 -4.49 H 44.61 Z m 0 -5.33 H 46.3 c 1.56 0 2.46 -0.57 2.46 -1.71 s -1 -1.72 -2.42 -1.72 H 44.61 Z" stroke-linecap="round"/>
</g>
		<g transform="matrix(11.4367 0 0 11.4367 -622.156 155.4775)">
<path style="stroke: none; stroke-width: 1; stroke-dasharray: none; stroke-linecap: butt; stroke-dashoffset: 0; stroke-linejoin: miter; stroke-miterlimit: 4; is-custom-font: none; font-file-url: none; fill: rgb(60,60,60); fill-rule: nonzero; opacity: 1;" transform=" translate(-54.22, -36.89)" d="M 54.21 33.47 a 0.65 0.65 0 1 1 0.66 -0.65 A 0.66 0.66 0 0 1 54.21 33.47 Z m 0.47 8.14 h -0.93 V 35.26 h 0.93 Z" stroke-linecap="round"/>
</g>
		<g transform="matrix(11.4367 0 0 11.4367 -545.5301 173.3724)">
<path style="stroke: none; stroke-width: 1; stroke-dasharray: none; stroke-linecap: butt; stroke-dashoffset: 0; stroke-linejoin: miter; stroke-miterlimit: 4; is-custom-font: none; font-file-url: none; fill: rgb(60,60,60); fill-rule: nonzero; opacity: 1;" transform=" translate(-60.92, -38.4547)" d="M 62.54 36.77 A 1.7 1.7 0 0 0 61 35.88 c -0.67 0 -1.35 0.28 -1.35 1 s 0.48 0.86 1.52 1.08 c 1.49 0.31 2.2 0.87 2.2 1.86 c 0 1.45 -1.22 2 -2.39 2 a 3 3 0 0 1 -2.51 -1.24 l 0.73 -0.54 A 2.13 2.13 0 0 0 61 41 c 0.78 0 1.49 -0.29 1.49 -1.11 s -0.66 -0.94 -1.87 -1.22 c -0.75 -0.18 -1.82 -0.51 -1.82 -1.71 A 1.989 1.989 0 0 1 61 35.1 a 2.59 2.59 0 0 1 2.22 1.14 Z" stroke-linecap="round"/>
</g>
		<g transform="matrix(11.4367 0 0 11.4367 -443.553 173.4696)">
<path style="stroke: none; stroke-width: 1; stroke-dasharray: none; stroke-linecap: butt; stroke-dashoffset: 0; stroke-linejoin: miter; stroke-miterlimit: 4; is-custom-font: none; font-file-url: none; fill: rgb(60,60,60); fill-rule: nonzero; opacity: 1;" transform=" translate(-69.8367, -38.4632)" d="M 73 38.68 H 67.73 A 2.32 2.32 0 0 0 70.05 41 a 2.39 2.39 0 0 0 2 -1.1 l 0.7 0.54 A 3.364 3.364 0 1 1 70 35.1 a 2.91 2.91 0 0 1 3 3.15 A 3.391 3.391 0 0 1 73 38.68 Z M 72.07 38 A 2 2 0 0 0 70 35.88 A 2.25 2.25 0 0 0 67.74 38 Z" stroke-linecap="round"/>
</g>
		<g transform="matrix(11.4367 0 0 11.4367 -289.4626 163.1754)">
<path style="stroke: none; stroke-width: 1; stroke-dasharray: none; stroke-linecap: butt; stroke-dashoffset: 0; stroke-linejoin: miter; stroke-miterlimit: 4; is-custom-font: none; font-file-url: none; fill: rgb(60,60,60); fill-rule: nonzero; opacity: 1;" transform=" translate(-83.31, -37.5631)" d="M 85.32 36 H 83.53 v 3.7 c 0 0.95 0.39 1.17 1 1.17 a 1.84 1.84 0 0 0 0.8 -0.21 v 0.8 a 2.86 2.86 0 0 1 -1.09 0.19 A 1.51 1.51 0 0 1 82.6 40 V 36 H 81.29 v -0.78 H 82.6 V 33.47 h 0.93 v 1.79 h 1.79 Z" stroke-linecap="round"/>
</g>
		<g transform="matrix(11.4367 0 0 11.4367 -192.8167 173.2212)">
<path style="stroke: none; stroke-width: 1; stroke-dasharray: none; stroke-linecap: butt; stroke-dashoffset: 0; stroke-linejoin: miter; stroke-miterlimit: 4; is-custom-font: none; font-file-url: none; fill: rgb(60,60,60); fill-rule: nonzero; opacity: 1;" transform=" translate(-91.7605, -38.4415)" d="M 91.71 41.78 a 3.34 3.34 0 1 1 3.39 -3.34 a 3.26 3.26 0 0 1 -3.39 3.34 Z m 0 -5.9 a 2.56 2.56 0 1 0 2.41 2.56 a 2.39 2.39 0 0 0 -2.41 -2.56 Z" stroke-linecap="round"/>
</g>
		<g transform="matrix(11.4367 0 0 11.4367 -75.7903 190.9834)">
<path style="stroke: none; stroke-width: 1; stroke-dasharray: none; stroke-linecap: butt; stroke-dashoffset: 0; stroke-linejoin: miter; stroke-miterlimit: 4; is-custom-font: none; font-file-url: none; fill: rgb(60,60,60); fill-rule: nonzero; opacity: 1;" transform=" translate(-101.9931, -39.9946)" d="M 99.46 42.89 a 3.21 3.21 0 0 0 2.43 1.16 a 2.25 2.25 0 0 0 2.48 -2.49 v -1.2 h 0 a 2.88 2.88 0 0 1 -2.4 1.25 a 3.11 3.11 0 0 1 -3.28 -3.23 a 3.18 3.18 0 0 1 3.28 -3.28 a 2.86 2.86 0 0 1 2.4 1.26 h 0 v -1.1 h 0.92 v 6.3 a 3.1 3.1 0 0 1 -3.45 3.31 a 4.28 4.28 0 0 1 -3 -1.28 Z M 102 40.83 a 2.36 2.36 0 0 0 2.44 -2.47 A 2.44 2.44 0 0 0 102 35.88 a 2.48 2.48 0 0 0 0 4.95 Z" stroke-linecap="round"/>
</g>
		<g transform="matrix(11.4367 0 0 11.4367 42.3072 173.6492)">
<path style="stroke: none; stroke-width: 1; stroke-dasharray: none; stroke-linecap: butt; stroke-dashoffset: 0; stroke-linejoin: miter; stroke-miterlimit: 4; is-custom-font: none; font-file-url: none; fill: rgb(60,60,60); fill-rule: nonzero; opacity: 1;" transform=" translate(-112.3193, -38.4789)" d="M 115.5 38.68 h -5.27 A 2.32 2.32 0 0 0 112.55 41 a 2.42 2.42 0 0 0 2 -1.1 l 0.69 0.54 a 3.37 3.37 0 1 1 -2.81 -5.33 a 2.91 2.91 0 0 1 3 3.15 A 0.639 0.639 0 0 1 115.5 38.68 Z m -0.93 -0.73 a 2 2 0 0 0 -2.1 -2.07 A 2.25 2.25 0 0 0 110.25 38 Z" stroke-linecap="round"/>
</g>
		<g transform="matrix(11.4367 0 0 11.4367 134.4955 163.1703)">
<path style="stroke: none; stroke-width: 1; stroke-dasharray: none; stroke-linecap: butt; stroke-dashoffset: 0; stroke-linejoin: miter; stroke-miterlimit: 4; is-custom-font: none; font-file-url: none; fill: rgb(60,60,60); fill-rule: nonzero; opacity: 1;" transform=" translate(-120.38, -37.5627)" d="M 122.39 36 H 120.6 v 3.7 c 0 0.95 0.39 1.17 1 1.17 a 1.8 1.8 0 0 0 0.8 -0.21 v 0.8 a 2.86 2.86 0 0 1 -1.09 0.19 A 1.51 1.51 0 0 1 119.68 40 V 36 h -1.32 v -0.78 h 1.32 V 33.47 h 0.92 v 1.79 h 1.79 Z" stroke-linecap="round"/>
</g>
		<g transform="matrix(11.4367 0 0 11.4367 229.4282 150.8452)">
<path style="stroke: none; stroke-width: 1; stroke-dasharray: none; stroke-linecap: butt; stroke-dashoffset: 0; stroke-linejoin: miter; stroke-miterlimit: 4; is-custom-font: none; font-file-url: none; fill: rgb(60,60,60); fill-rule: nonzero; opacity: 1;" transform=" translate(-128.6807, -36.485)" d="M 126.84 36.31 A 2.37 2.37 0 0 1 129 35.1 a 2.31 2.31 0 0 1 2.42 2.62 v 3.89 h -0.93 V 38.1 c 0 -1.33 -0.39 -2.22 -1.72 -2.22 c -1 0 -1.93 0.78 -1.93 2.48 v 3.25 h -0.92 V 31.36 h 0.92 v 5 Z" stroke-linecap="round"/>
</g>
		<g transform="matrix(11.4367 0 0 11.4367 340.5761 173.6492)">
<path style="stroke: none; stroke-width: 1; stroke-dasharray: none; stroke-linecap: butt; stroke-dashoffset: 0; stroke-linejoin: miter; stroke-miterlimit: 4; is-custom-font: none; font-file-url: none; fill: rgb(60,60,60); fill-rule: nonzero; opacity: 1;" transform=" translate(-138.3993, -38.4789)" d="M 141.58 38.68 h -5.27 A 2.32 2.32 0 0 0 138.63 41 a 2.41 2.41 0 0 0 2 -1.1 l 0.69 0.54 a 3.37 3.37 0 1 1 -2.81 -5.33 a 2.91 2.91 0 0 1 3 3.15 A 0.639 0.639 0 0 1 141.58 38.68 Z m -0.93 -0.73 a 2 2 0 0 0 -2.1 -2.07 A 2.25 2.25 0 0 0 136.33 38 Z" stroke-linecap="round"/>
</g>
		<g transform="matrix(11.4367 0 0 11.4367 442.7143 172.0008)">
<path style="stroke: none; stroke-width: 1; stroke-dasharray: none; stroke-linecap: butt; stroke-dashoffset: 0; stroke-linejoin: miter; stroke-miterlimit: 4; is-custom-font: none; font-file-url: none; fill: rgb(60,60,60); fill-rule: nonzero; opacity: 1;" transform=" translate(-147.33, -38.3348)" d="M 145.56 35.26 h 0.88 c 0 0.34 0.05 0.82 0.05 1.09 h 0 a 2.26 2.26 0 0 1 2 -1.25 a 2.32 2.32 0 0 1 0.61 0.07 L 149 36 a 2.53 2.53 0 0 0 -0.65 -0.08 c -1 0 -1.86 0.7 -1.86 2.4 v 3.25 h -0.92 v -5 A 7.211 7.211 0 0 0 145.56 35.26 Z" stroke-linecap="round"/>
</g>
		<g transform="matrix(11.4367 0 0 11.4367 -906.3577 -150.8587)">
<path style="stroke: none; stroke-width: 1; stroke-dasharray: none; stroke-linecap: butt; stroke-dashoffset: 0; stroke-linejoin: miter; stroke-miterlimit: 4; is-custom-font: none; font-file-url: none; fill: rgb(255,69,0); fill-rule: evenodd; opacity: 1;" transform=" translate(-29.37, -10.1046)" d="M 17.83 16.53 C 22.07 12.7 26.7 8.65 30.94 4.81 c 1.63 -1.54 2.61 -1.37 3.55 -0.31 l 6.42 8.29 Z" stroke-linecap="round"/>
</g>
		<g transform="matrix(11.4367 0 0 11.4367 -868.7568 38.4384)">
<path style="stroke: none; stroke-width: 1; stroke-dasharray: none; stroke-linecap: butt; stroke-dashoffset: 0; stroke-linejoin: miter; stroke-miterlimit: 4; is-custom-font: none; font-file-url: none; fill: rgb(60,60,60); fill-rule: evenodd; opacity: 1;" transform=" translate(-32.6577, -26.6564)" d="M 28 40.62 h 1.45 c 0.87 0.22 1.37 -1.23 1.56 -1.57 Q 36.23 26.63 41.39 14.2 c 0.09 -0.5 0 -1.77 -1.25 -1.49 L 30.37 14.5 L 23.9 30.86 Z" stroke-linecap="round"/>
</g>
		<g transform="matrix(11.4367 0 0 11.4367 -1070.6458 -24.3523)">
<path style="stroke: none; stroke-width: 1; stroke-dasharray: none; stroke-linecap: butt; stroke-dashoffset: 0; stroke-linejoin: miter; stroke-miterlimit: 4; is-custom-font: none; font-file-url: none; fill: rgb(255,69,0); fill-rule: evenodd; opacity: 1;" transform=" translate(-15.005, -21.1661)" d="M 0.6 1.79 L 11.54 1.7 C 15.7 11.51 19.83 20.62 24 30.64 c 0.93 2.24 2 4.53 3 6.88 c 0.49 1.16 1.29 3 2.41 3.1 H 18.88 a 2 2 0 0 1 -2.14 -1.43 Z" stroke-linecap="round"/>
</g>
</g>
</g>
</svg>